<?xml version="1.0" encoding="utf-8"?>
<!-- Generator: Adobe Illustrator 24.0.1, SVG Export Plug-In . SVG Version: 6.00 Build 0)  -->
<svg version="1.1" id="Layer_1" xmlns="http://www.w3.org/2000/svg" xmlns:xlink="http://www.w3.org/1999/xlink" x="0px" y="0px"
	 viewBox="0 0 1016 1132" style="enable-background:new 0 0 1016 1132;" xml:space="preserve">
<style type="text/css">
	.st0{clip-path:url(#SVGID_9_);}
	.st1{clip-path:url(#SVGID_10_);}
	.st2{fill:#FFFFFF;}
	.st3{fill:#ED1C24;}
	.st4{fill:#999999;}
</style>
<g>
	<g>
		<path id="SVGID_2_" d="M859.3,1073.1H156.7c-48,0-86.9-38.9-86.9-86.9V145.8c0-48,38.9-86.9,86.9-86.9h702.6
			c48,0,86.9,38.9,86.9,86.9v840.5C946.2,1034.2,907.3,1073.1,859.3,1073.1z"/>
	</g>
	<g>
		<path id="SVGID_1_" d="M859.3,1073.1H156.7c-48,0-86.9-38.9-86.9-86.9V145.8c0-48,38.9-86.9,86.9-86.9h702.6
			c48,0,86.9,38.9,86.9,86.9v840.5C946.2,1034.2,907.3,1073.1,859.3,1073.1z"/>
	</g>
	<g>
		<defs>
			<path id="SVGID_5_" d="M859.3,1073.1H156.7c-48,0-86.9-38.9-86.9-86.9V145.8c0-48,38.9-86.9,86.9-86.9h702.6
				c48,0,86.9,38.9,86.9,86.9v840.5C946.2,1034.2,907.3,1073.1,859.3,1073.1z"/>
		</defs>
		<clipPath id="SVGID_6_">
			<use xlink:href="#SVGID_5_"  style="overflow:visible;"/>
		</clipPath>
	</g>
	<g>
		<defs>
			<path id="SVGID_7_" d="M859.3,1073.1H156.7c-48,0-86.9-38.9-86.9-86.9V145.8c0-48,38.9-86.9,86.9-86.9h702.6
				c48,0,86.9,38.9,86.9,86.9v840.5C946.2,1034.2,907.3,1073.1,859.3,1073.1z"/>
		</defs>
		<defs>
			<path id="SVGID_8_" d="M859.3,1073.1H156.7c-48,0-86.9-38.9-86.9-86.9V145.8c0-48,38.9-86.9,86.9-86.9h702.6
				c48,0,86.9,38.9,86.9,86.9v840.5C946.2,1034.2,907.3,1073.1,859.3,1073.1z"/>
		</defs>
		<clipPath id="SVGID_9_">
			<use xlink:href="#SVGID_7_"  style="overflow:visible;"/>
		</clipPath>
		<clipPath id="SVGID_10_" class="st0">
			<use xlink:href="#SVGID_8_"  style="overflow:visible;"/>
		</clipPath>
		<g class="st1">
			<g>
				<path id="SVGID_4_" d="M932.8,1073.1H83.2c-7.4,0-13.3-6-13.3-13.3V72.2c0-7.4,6-13.3,13.3-13.3h849.7c7.4,0,13.3,6,13.3,13.3
					v987.6C946.2,1067.2,940.2,1073.1,932.8,1073.1z"/>
			</g>
			<g>
				<path id="SVGID_3_" d="M932.8,1073.1H83.2c-7.4,0-13.3-6-13.3-13.3V72.2c0-7.4,6-13.3,13.3-13.3h849.7c7.4,0,13.3,6,13.3,13.3
					v987.6C946.2,1067.2,940.2,1073.1,932.8,1073.1z"/>
			</g>
			<g>
				<defs>
					<path id="SVGID_11_" d="M932.8,1073.1H83.2c-7.4,0-13.3-6-13.3-13.3V72.2c0-7.4,6-13.3,13.3-13.3h849.7c7.4,0,13.3,6,13.3,13.3
						v987.6C946.2,1067.2,940.2,1073.1,932.8,1073.1z"/>
				</defs>
				<clipPath id="SVGID_12_">
					<use xlink:href="#SVGID_11_"  style="overflow:visible;"/>
				</clipPath>
			</g>
		</g>
	</g>
</g>
<g>
	<g>
		<path class="st2" d="M-819.5,190.1l-0.8,13.4c3.6-3.7,8.1-5.8,13.7-5.8c12.2,0,18.5,8,18.5,25.1c0,21-5.9,30.6-24.2,30.6
			c-17.2,0-24.2-8.1-24.2-22.4v-2.6h18.1v2.7c0,7.4,2,9.6,5.3,9.6c3.7,0,5.5-1.8,5.5-17c0-8.9-1.9-12-5.5-12c-3.2,0-5.3,1.9-5.3,6.7
			H-836l1.6-44h43v15.6H-819.5z"/>
		<path class="st2" d="M-765.1,252.1v-53.9h-14v-13c12,0,17-3,19.4-12.3h14.1v79.3H-765.1z"/>
		<path class="st2" d="M-727,196.8c0.2-8.3,2.2-14.4,6.1-18.2c4-3.9,9.5-5.8,17.2-5.8c18.1,0,23.4,8,23.4,21.9
			c0,6.3-2.6,14.1-10.3,15.8v0.2c8.6,1.8,11.6,8.8,11.6,17.4c0,17.9-8.1,25.3-24.1,25.3c-16.8,0-24.5-5.6-24.5-25h18.1
			c0,4.5,0.5,7.3,1.4,9.5c0.8,1.8,2.2,2.9,4.4,2.9c4.5,0,5.3-2.4,5.3-12.3c0-7.6-2.2-9.8-7.2-9.8h-4.9v-13h2.9
			c5.8,0,8.4-1.8,8.4-11.2c0-6.6-1.6-8.4-4.9-8.4c-3.7,0-5.2,2.5-5.2,11L-727,196.8L-727,196.8z"/>
		<path class="st2" d="M-623,213.3c0,32.3-7.9,40.1-25.2,40.1c-17.3,0-25.2-7.8-25.2-40.1c0-32,7.9-40.4,25.2-40.4
			C-630.9,172.8-623,181.3-623,213.3z M-642.4,200.1c0-11.2-1.7-14.3-5.8-14.3s-5.8,3.1-5.8,14.3v26.3c0,11.2,1.7,14.3,5.8,14.3
			s5.8-3.1,5.8-14.3V200.1z"/>
	</g>
</g>
<g>
	<path class="st2" d="M623.7,541.5c0.2,0-0.9-2.8-0.8-2.8c0.2-9.1,0.2-13.1,1.1-22.1c3.1-16.1,8.1-35.4,16.2-45.7
		c0.7-0.9,0-0.7-0.7-1.5c-0.4-3.9-1.7-5.9-1.5-9.9c0.2-0.8-1-2.6-0.7-3.3c0.2-0.5,1-4.7,1.1-5.2c0.2-0.6-8.5-0.7-8.5-1.5
		c0.1-2,8.8-2.2,8.4-3.8c-0.5-2.3-11.6-4-11.3-6.1c-0.1-4.6,7.4-1.3,7.1-6.2c-1.4-10.1,6.5-12.9-0.9-14.8s3-4.3,1.8-8.5
		c-1.7-2.9,2.2-5.5-1.1-7.4c-5.3-4.2,0.3-13.7,2.2-18.8c0.8-2.3,2.3-5.1,3.9-6.9c0.8-1-0.7,0.1,0.2-0.9c0.3-0.5-0.1-2.8,0.4-3.3
		c-0.8-0.7,0.6-2.3,0.4-3.3c-0.7-1.2,0.8-3.8,1.1-5.2c0.2-2.5,2.1-3.1,2.6-5.5c0.8-1.8-0.4-3.9-0.7-5.9c-0.7-5.2-1.8-7-1.5-16.3
		c0.1-3.7-0.1-6.9-0.1-10.5c-0.2-5.2-1.9-9.8-1.8-15c0.5-4.9,3.9-3.3,2.9-11.7c0-2.2,1-1.9,2.2-3.2c1.5-2.2,0-5.5,1.1-7.9
		c3.4-8.6-5-4.3-5.5-10.1c-0.5-3,3.1-4.1,2.7-6.8c-0.5-1-0.6-2.3,0.9-2.2c0.7,0.6,2.4,0.4,3.2-0.2c3.1-2.7-1.3-6-1-9.3
		c-1.4-2.8-0.2-6.6-2.3-9c-0.8-1-2.1-1.2-1.2-2.8c4-5,9.1-0.3,9.9-8.7c0.2-1.1,0.9-2.1,1.5-3c1.2-2,8-3.1,5.2-6.1
		c-10.1-5.2-3.1-5.2-0.8-11.7c1.2-3.9,1.5-7.9,1.3-12c0.8-1.9,0.3-3.8,0.4-5.9c1.1-4.2,0.6-10.3-2.6-12.8c-3.2-1.3-4.5-5.1-5.7-8.4
		c1.1-5.5,1.3-11.2,1-17c0.1-1.2,0-2.5-0.6-3.5c0.2-1.9-0.6-3.7-0.5-5.6c-2.2-3.3,1.6-5.7,3.1-8.1c1.6-1.6,2.1-4.9,4.2-5.7
		c1.3,0.1,2.4,1.1,3.3-0.7c1.6-5.3-1.9-11.4,0.5-16.8c0.4-3.4,3.8-7.8,2.4-10.7c-0.2-0.9,0.2-1.9-0.5-2.5c0.1-1.1-0.3-2.2-0.6-3.2
		c-0.6-5.3,4.2-15.8-4.8-11.5c-1.8,1.4-3,3.2-5.4,2.8l-1.3-2c0,0,0,0,0,0c-1-1.3-2.5,0.4-3.5,0.8c-0.4-0.8-3.5-5.2-4-5.9
		c0,0,0,0.1,0,0.1c-5.6-7.9-4.2,3.7-8.5,5.8c-1.1,0.2-1.7,1.1-1.9,2.3c-0.4,1.3-0.7,2.8,0.1,3.9c0.3,1.3,0,3.1,0,4.5
		c0.3,2-0.7,3.6-0.5,5.6c-0.9,2-1.3,4-1.2,6.2c-1.8,5.1,0.5,10.1-4.3,14c-0.1,0.7-2.3,0.6-3.3,1.3c-1.5,1.5-1.2,4.6-3.9,5.5
		c-1.6,0.2-2.1-2.7-3.7-2.5c-4.5,2.1-6.9,10.1-12.8,7.9c-5.6,1.3-7.8,7.8-13.9,1.7c0-2.9-3.2-6.6-4.6-8.7c0.1,0.1,0.1,0.2,0.2,0.3
		c-2.9-4.7-8.5-0.6-12.5,1.3c-3.5,1.6-7.3,0.4-11,1.3c-4.4,3.1-5.8,3.1-10.9,2.4c-3.3-2.7-6.1,1.6-9,2.6c-4.1-2.1-7.8-1-7.7,5
		c0.8,12.1-5.7,23-7.2,34.3c0,0,0,0,0-0.1c1.2,1.5,3.3,5.8,5.4,6.1c-0.4,3.2-2.8,7.3-3.2,9.9c-0.4,2.4-0.9,5.9-2.8,7.6
		c-2.1,1.1-3.6,2.9-5.5,4.4c-1,1.4-2.4,3.2-4.1,2.9l-3.1-4.5c0,0,0,0,0,0c-1.9-1.1-4.4-1.9-6.7-1.3c-0.6,0.7-0.9,1.3-2,1.2
		c-1,0.2-1.1,1.3-2.1,1.8c-1.1,35.5-11,69.9-17.9,104.6l0,0l0,0c-4,18.1-8.3,36.3-13.4,54c0,0-0.1,0-0.2,0
		c-19.7,70.3-47.5,140.2-94.2,192.4l0,0l0,0c-9.8,12.3-19,20.8-29.2,32.6c0.8,1,2.2,7.3,3.3,7.7c2.5,7.7,4,14.8,6.3,22.5
		c0,0,1.1,3.7,1.1,3.7c3.3,12.1,4.3,21,8.2,32.8c12.5,37.7,38.2,69.5,46.3,109c1.4,8.9-2.4,21.3,2.8,28.9c0,0,0-0.1-0.1-0.1
		c1.4,2,4,6,5.7,7.6c2.1,6.5-5.6,16.9-1.2,21.4c-0.1-0.1-0.2-0.3-0.3-0.4c2.1,3,3.7,6.1,6.9,8c4.4,3.1,7.9,2.7,9.9,6
		c5.3,13.1,10.5,27.5,16.3,40.9c5.4,13.6,13,27.4,12.3,42.4c1.1,7,6.6,12.9,9.5,19.5c3.2,7.2,5.6,14.8,8.8,22.1
		c5.5,12.6,7,24.4,10.7,37.2c2.5,21.7-6.1,27.9,11.9,46.2c2.6-3.1,4.2-6.9,6.7-10c0.3-0.6,1.2-3.9,5.1-3.5c5.3-2.1,2.4-8.8,4.7-13.2
		c2-2.5,3.6-5,5.9-7.2c7.2-5.6-1.2-18.2,3.7-25.9c3.3-5.6,2.6-11.7,2.6-17.9c1.4-2.6,0.3-5.7,0.5-8.5c0.4-4.4,3.7-6.7,5.9-9.8
		c2-7.2-2.2-15.2,0.1-22.3c-0.1-5.4,3.8-9.2,5-14.5c1.2-3.4,1.1-7.4,2.3-10.7c2.5-5.9,7.2-10.8,11.8-14.6c3-1.9,1.6-6.9,0.3-9.8
		c-1.6-7.1-4-14.3-6.8-20.9c-0.7-3.6,1.4-6.1,3.5-8.4c2.8-3.2,0.2-7.7,2.6-10.7c6.6-7.4,7.1-7.5,1.9-16.6c-1.9-5.2-5.5-9-8.3-13.6
		c-1.6-2.2,2.3-3.2,3.3-4.5c2.5-0.3,3.4-3,3.9-5.4c1.8-6.6,3.2-12.7,4.7-19.3c0.3-6.2,2.8-12.4,5.1-17.9c0.2-1.6,1.2-2.5,1.9-3.9
		c0.4-1.6,1.3-3,2.4-4c2.8-5.8,4.9-11.7,7.5-17.5c1.4-6.2,1.2-13.2,3.1-19.3c0.9-4.4,3.9-3.7,6.7-5.7c4.7-2.5,2.5-5,1.5-10
		c1-2.8,1.9-5.4,1.8-8.7c0.8-7.2,8.3-9.6,12.3-14c5.2-5.2,1.2-13.5,0.2-19.8c0-1.5,0.3-1.3,0.8-2.5c0.8-1.9,1-4.5,3.7-4.5
		c4.6-7.4,11.4-14.8,9.2-24.7c-3.3-9-7.4-19.5-15.4-24c-1.3-1.8-2.4-4.9-1.3-7c-0.2-2.4,0.9-4.6,2.2-6.4
		c5.6-9.5,11.5-19.2,14.2-30.9c1.1-6.7-0.3-10.5,0.5-18.9C624.2,544,624.3,543,623.7,541.5"/>
	<path id="PS_1_" class="st3" d="M420.5,541.1l0,5l-2,3.5l-6.5,1.5l-20.6,20l-1.8,1.7l-7.4,9.6l-0.9,2.9l-1.1,3.6l0.6,7.5l0,7
		l-2.5,4.5l-8.2,7.1l-1.7,1.5l-10,7.5l-8.7-28.8l0.5-0.4l6.6-6.5l7.6-8.2l2.4-2.2l2-1.9l4.2-4.3l3.3-3.6l5.3-6.3l1.3-1.8l1.7-2
		l4.9-5.4l10.2-13.1l5.6-8.1l2.4-3.9l9.7,9L420.5,541.1L420.5,541.1z"/>
	<polygon class="st4" points="644.4,355.1 643.8,353.1 643.6,349 642.7,345.4 643.5,339.8 642,336.2 642.1,334.4 643.1,331.4 
		641.5,326.9 641.6,324.9 642.3,323.1 642.9,319.3 642.4,317.9 640.8,315.9 641.2,311.3 636.2,309.9 629.9,307 627.2,306.1 
		622.3,305.9 619.1,306.9 616.4,306.4 615,305.2 615,303.9 613.5,301.9 612.2,298.3 612.5,293.2 611.8,287.8 608.3,281.8 
		604.9,279.3 603.1,278.8 598.9,278.7 588.4,280.7 585.9,280.7 584.2,280.2 580.8,278.5 577.5,276.1 573.7,272.1 570.7,270.5 
		568.6,270.9 567.5,271.4 563.5,275.9 562.8,277.4 560.2,279.9 556,283 550.6,285.7 542,289 540.4,290.2 539.1,292.6 538.4,294 
		537.4,297.5 536.4,304 534.6,309.2 533.7,315.6 532.2,317.1 526.6,319.6 525.2,321.4 522.9,325.7 522.6,332.5 523.7,339.7 
		522.9,341.6 522.5,341.9 521.1,342.9 518.2,347.2 514.3,356 513.9,358.9 514,361.8 517,366.2 518.1,368.7 519.7,375.9 520,379.1 
		519.3,381.8 517.6,385 517.5,386.1 517.3,387.1 518,388.7 520.2,391.1 520.5,391.7 522.7,395.8 523.4,398.7 522.9,402.4 
		521.2,406.2 521.2,407.9 521.7,409.2 520.7,410 521.7,412.5 518.7,418.8 519.2,424.5 522.5,428.9 527.4,432.9 528.5,436.9 
		526.6,442.8 515.8,444.7 513.2,448.6 515,455.4 519.1,457.1 525.1,458 530.5,456 534.6,451.6 537.5,449.9 538.7,449.2 543.4,453.6 
		547.7,455.7 557,459.4 567,459.4 570.9,463.5 570.2,472.5 568,476 567.7,476.5 556.9,476.8 547.7,480.5 538.4,489.7 536.5,491.6 
		526.4,496.5 522.8,499.6 516.3,506.7 514.3,509.9 511,514.9 509.1,524.3 510,534.5 509.2,538.9 504.9,547.1 500.2,553.2 496,561.6 
		496.6,566.6 499,570.5 502.5,573.3 507.8,574.8 517.5,573.5 526.5,571.2 535.3,572 547.7,572.8 552.2,570.4 555.2,571.1 
		559.9,570.3 563.9,570 569.1,569 572.2,567.1 578.5,560.7 583.8,554.7 590.8,551.6 597.9,546.4 600,544.5 605.5,539.7 608.9,538.5 
		623.1,538.7 623.2,528.3 623.7,517.1 628.2,501.5 632.9,486.8 634.9,480.6 635.1,480.1 640.3,470.8 637.6,456.1 639.3,451.3 
		637.1,447.8 639.2,443.6 635.5,441.2 633.4,430.6 637.2,426.9 638.6,417.9 635,410 637,407.1 636.7,405.4 634.3,402.6 633.8,391.8 
		634.5,390.6 635.6,388.2 636.3,383.8 639.3,379.7 640.2,376.9 640.8,370.1 642.2,363.8 644,360.2 644.5,358 	"/>
</g>
</svg>
