<?xml version="1.0" encoding="utf-8"?>
<!-- Generator: Adobe Illustrator 22.1.0, SVG Export Plug-In . SVG Version: 6.00 Build 0)  -->
<svg version="1.1" id="Layer_1" xmlns="http://www.w3.org/2000/svg" xmlns:xlink="http://www.w3.org/1999/xlink" x="0px" y="0px"
	 viewBox="0 0 47 35.4" style="enable-background:new 0 0 47 35.4;" xml:space="preserve">
<style type="text/css">
	.st0{clip-path:url(#SVGID_2_);}
	.st1{fill:#022A41;}
	.st2{clip-path:url(#SVGID_6_);}
	.st3{clip-path:url(#SVGID_7_);fill:#022A41;}
	.st4{fill:#BE1E2D;}
	.st5{fill:#FFFFFF;}
</style>
<g>
	<g>
		<defs>
			<path id="SVGID_1_" d="M7.7,31.8h31c2.9,0,5.3-2.4,5.3-5.3V7.8c0-2.9-2.4-5.3-5.3-5.3h-31c-2.9,0-5.3,2.4-5.3,5.3v18.7
				C2.4,29.4,4.8,31.8,7.7,31.8z"/>
		</defs>
		<clipPath id="SVGID_2_">
			<use xlink:href="#SVGID_1_"  style="overflow:visible;"/>
		</clipPath>
		<g class="st0">
			<g>
				<path id="SVGID_3_" class="st1" d="M7.1,2.5c-2.6,0-4.7,2.1-4.7,4.7v19.9c0,2.6,2.1,4.7,4.7,4.7h32.2c2.6,0,4.7-2.1,4.7-4.7V7.2
					c0-2.6-2.1-4.7-4.7-4.7C39.3,2.5,7.1,2.5,7.1,2.5z"/>
			</g>
			<g>
				<defs>
					<path id="SVGID_4_" d="M7.1,2.5c-2.6,0-4.7,2.1-4.7,4.7v19.9c0,2.6,2.1,4.7,4.7,4.7h32.2c2.6,0,4.7-2.1,4.7-4.7V7.2
						c0-2.6-2.1-4.7-4.7-4.7C39.3,2.5,7.1,2.5,7.1,2.5z"/>
				</defs>
				<defs>
					<path id="SVGID_5_" d="M7.1,2.5c-2.6,0-4.7,2.1-4.7,4.7v19.9c0,2.6,2.1,4.7,4.7,4.7h32.2c2.6,0,4.7-2.1,4.7-4.7V7.2
						c0-2.6-2.1-4.7-4.7-4.7C39.3,2.5,7.1,2.5,7.1,2.5z"/>
				</defs>
				<clipPath id="SVGID_6_">
					<use xlink:href="#SVGID_4_"  style="overflow:visible;"/>
				</clipPath>
				<clipPath id="SVGID_7_" class="st2">
					<use xlink:href="#SVGID_5_"  style="overflow:visible;"/>
				</clipPath>
				<path class="st3" d="M39.3,31.8H7.1c-2.6,0-4.7-2.1-4.7-4.7V7.2c0-2.6,2.1-4.7,4.7-4.7h32.2c2.6,0,4.7,2.1,4.7,4.7v19.9
					C44,29.7,41.9,31.8,39.3,31.8"/>
				<path class="st3" d="M39.3,31.8H7.1c-2.6,0-4.7-2.1-4.7-4.7V7.2c0-2.6,2.1-4.7,4.7-4.7h32.2c2.6,0,4.7,2.1,4.7,4.7v19.9
					C44,29.7,41.9,31.8,39.3,31.8"/>
			</g>
		</g>
		<g class="st0">
			<path class="st4" d="M18.1,24.9c-0.2-0.1-0.5-0.2-0.7-0.3c-0.6-0.3-1.3-0.6-1.9-1c-0.2-0.1-0.4-0.5-0.3-0.6
				c0-0.2,0.4-0.3,0.6-0.4c0,0,0.1,0,0.1,0c0.3-0.1,0.5-0.2,0.8-0.3c-0.2-0.2-0.3-0.6-0.6-0.7c-0.7-0.5-1.5-0.8-2.2-1.3
				c-0.3-0.2-0.5-0.3-0.8-0.5c1-0.4,5.3,1.1,6,2.2c-0.2,0.2-0.3,0.3-0.5,0.5c-0.8,0.8-0.5,1.8,0.6,2.1c0.9,0.2,1.8,0.5,2.7,0.8
				c0.4,0.1,0.8,0.3,1.2,0.6c0.2,0.2,0.4,0.4,0.5,0.7c-0.2,0.2-0.4,0.4-0.6,0.5c-0.5,0.2-1.1,0.3-1.6,0.3c-3.3,0.3-6.7,0.4-10-0.2
				c-0.4-0.1-0.7-0.2-1.1-0.4c0-0.1,0-0.2,0-0.3c0.4-0.1,0.9-0.2,1.3-0.3c1.7-0.2,3.3-0.3,5-0.5c0.5-0.1,1-0.3,1.5-0.4
				C18.1,25.1,18.1,25,18.1,24.9"/>
			<path class="st4" d="M8.4,21.8c0.4,0.1,0.8,0.2,1.2,0.3c0.4,0.2,0.4,0.5,0,0.7c-0.8,0.4-1.6,0.4-2.4,0c-0.4-0.2-0.4-0.5,0-0.7
				C7.6,22,8,21.9,8.4,21.8"/>
			<path class="st4" d="M5.5,20.8c-0.3-0.1-0.6-0.1-0.9-0.2c-0.3-0.1-0.3-0.4,0-0.5c0.6-0.3,1.2-0.3,1.8,0c0.3,0.1,0.3,0.4,0,0.5
				C6.1,20.6,5.8,20.7,5.5,20.8"/>
			<path class="st5" d="M37.6,21.3l0.1-3.5c0.6-0.2,1-0.7,0.9-1.3c0-0.5-0.4-1-0.9-1.1l0-0.9c-4.5-1.3-13.6,1.6-16.5,1.9
				c-1,0.1-1.3,0.2-2.6-0.3c-0.1,0-0.2-0.2-0.3-0.4l4.3-1.3c0.6-0.2,0.9-0.8,0.7-1.4c-0.2-0.6-0.8-0.9-1.4-0.7l-3,0.9l-2.6,0.8
				c-0.4,0.1-0.6,0.4-0.7,0.7c-0.3,0-0.6,0.1-0.8,0.2c-0.1-0.1-0.2-0.1-0.3-0.2c-0.4-0.4-0.8-0.7-1.1-0.9c-1.1-0.6-2.9-1.5-4-1.6
				l0,0.1c-0.3,0-0.6,0-0.8,0.1c-0.4,0.1-0.8,0.3-1,0.5c-0.4,0.4-0.8,1.1-0.9,2c-0.1,1.6,0.9,2.6,1.3,2.8c1.5,1,3.2,2.5,4.9,2.7
				c0.1,0,0.1,0,0.2,0l0.6,0.9l1.6,2.7c0.2,0.4,0.6,0.5,1,0.5c0.2,0,0.5-0.1,0.7-0.3l3-2.6c1.7,1.6,6.2,1.7,10.4,2.2
				c1.6,0.2,5.5,1.2,7.1,1.2l0-1.2c0.5-0.1,0.9-0.5,1-1C38.7,22.1,38.2,21.4,37.6,21.3 M16.7,21.8L16,20.6l0,0l-0.1-0.2
				c0.1-0.1,0.2-0.2,0.2-0.3c0.1-0.2-0.1-0.3-0.4-0.4c0.8,0,1.2,0,2.5,0.7L16.7,21.8z"/>
		</g>
	</g>
</g>
</svg>
