<?xml version="1.0" encoding="utf-8"?>
<!-- Generator: Adobe Illustrator 22.1.0, SVG Export Plug-In . SVG Version: 6.00 Build 0)  -->
<svg version="1.1" id="Layer_1" xmlns="http://www.w3.org/2000/svg" xmlns:xlink="http://www.w3.org/1999/xlink" x="0px" y="0px"
	 viewBox="0 0 47 35.4" style="enable-background:new 0 0 47 35.4;" xml:space="preserve">
<style type="text/css">
	.st0{clip-path:url(#SVGID_2_);}
	.st1{fill:#022A41;}
	.st2{clip-path:url(#SVGID_6_);}
	.st3{clip-path:url(#SVGID_7_);fill:#022A41;}
	.st4{fill:#FFFFFF;}
</style>
<g>
	<g>
		<defs>
			<path id="SVGID_1_" d="M7.7,31.8h31c2.9,0,5.3-2.4,5.3-5.3V7.8c0-2.9-2.4-5.3-5.3-5.3h-31c-2.9,0-5.3,2.4-5.3,5.3v18.7
				C2.4,29.4,4.8,31.8,7.7,31.8z"/>
		</defs>
		<clipPath id="SVGID_2_">
			<use xlink:href="#SVGID_1_"  style="overflow:visible;"/>
		</clipPath>
		<g class="st0">
			<g>
				<path id="SVGID_3_" class="st1" d="M7.1,2.5c-2.6,0-4.7,2.1-4.7,4.7v19.9c0,2.6,2.1,4.7,4.7,4.7h32.2c2.6,0,4.7-2.1,4.7-4.7V7.2
					c0-2.6-2.1-4.7-4.7-4.7C39.3,2.5,7.1,2.5,7.1,2.5z"/>
			</g>
			<g>
				<defs>
					<path id="SVGID_4_" d="M7.1,2.5c-2.6,0-4.7,2.1-4.7,4.7v19.9c0,2.6,2.1,4.7,4.7,4.7h32.2c2.6,0,4.7-2.1,4.7-4.7V7.2
						c0-2.6-2.1-4.7-4.7-4.7C39.3,2.5,7.1,2.5,7.1,2.5z"/>
				</defs>
				<defs>
					<path id="SVGID_5_" d="M7.1,2.5c-2.6,0-4.7,2.1-4.7,4.7v19.9c0,2.6,2.1,4.7,4.7,4.7h32.2c2.6,0,4.7-2.1,4.7-4.7V7.2
						c0-2.6-2.1-4.7-4.7-4.7C39.3,2.5,7.1,2.5,7.1,2.5z"/>
				</defs>
				<clipPath id="SVGID_6_">
					<use xlink:href="#SVGID_4_"  style="overflow:visible;"/>
				</clipPath>
				<clipPath id="SVGID_7_" class="st2">
					<use xlink:href="#SVGID_5_"  style="overflow:visible;"/>
				</clipPath>
				<path class="st3" d="M39.3,31.8H7.1c-2.6,0-4.7-2.1-4.7-4.7V7.2c0-2.6,2.1-4.7,4.7-4.7h32.2c2.6,0,4.7,2.1,4.7,4.7v19.9
					C44,29.7,41.9,31.8,39.3,31.8"/>
				<path class="st3" d="M39.3,31.8H7.1c-2.6,0-4.7-2.1-4.7-4.7V7.2c0-2.6,2.1-4.7,4.7-4.7h32.2c2.6,0,4.7,2.1,4.7,4.7v19.9
					C44,29.7,41.9,31.8,39.3,31.8"/>
			</g>
		</g>
	</g>
	<path class="st4" d="M19.6,28.7c-5.2-0.4-7.6-5.5-10.4-9.3c-1.4-2.4-3.6-3.4-2.8-4.3c9.6-9.7,2.6-3.8,12-3.2
		c1.8,0.4,3.7,0.3,4.7,2.1c0.2,0.7-0.8,0.7-1.1,1.3c0.7,2.1,3,3.6,4.6,5.3c2.9,1.9-0.8,3.8-2.5,4.9c-0.9,0.7-1.4,1.4-2.7,1.8
		C21.1,28.1,20.5,28.7,19.6,28.7"/>
	<path class="st4" d="M24.3,16.3c0.4-0.4,0.8-0.8,1.2-1.3c-0.7-0.8-2.6-1.9-2.1-2.7c2.2-1.9,3.9-5.1,5-3.4c4.8,5.1,8.2,7.5,7.8,8.4
		c-5,5.2-3.7,4.6-6.6,1.8c-0.4,0.4-0.8,0.8-1.2,1.1C26.9,19.1,25.5,17.8,24.3,16.3 M27.7,11.9c-0.3,0.2-0.5,0.5-0.8,0.7
		c1.7,1.7,3.4,3.4,5.1,5.1c0.3-0.2,0.5-0.5,0.8-0.7C31,15.3,29.3,13.6,27.7,11.9"/>
	<path class="st4" d="M35.4,4.5c5.8,0.3,6.3,7.7,1.5,9.3c-1.8,0.9-3.2-2-4.4-2.9C28.6,8.4,32,4.5,35.4,4.5"/>
	<path class="st4" d="M18.1,29.9c-3,3.8-6.1-0.8-4.3-2.3C15,28.7,16.4,29.5,18.1,29.9"/>
</g>
</svg>
