<?xml version="1.0" encoding="utf-8"?>
<!-- Generator: Adobe Illustrator 22.1.0, SVG Export Plug-In . SVG Version: 6.00 Build 0)  -->
<svg version="1.1" id="Layer_1" xmlns="http://www.w3.org/2000/svg" xmlns:xlink="http://www.w3.org/1999/xlink" x="0px" y="0px"
	 viewBox="0 0 47 35.4" style="enable-background:new 0 0 47 35.4;" xml:space="preserve">
<style type="text/css">
	.st0{clip-path:url(#SVGID_2_);}
	.st1{fill:#022A41;}
	.st2{clip-path:url(#SVGID_6_);}
	.st3{clip-path:url(#SVGID_7_);fill:#022A41;}
	.st4{fill:#FFFFFF;}
</style>
<g>
	<g>
		<defs>
			<path id="SVGID_1_" d="M7.7,31.8h31c2.9,0,5.3-2.4,5.3-5.3V7.8c0-2.9-2.4-5.3-5.3-5.3h-31c-2.9,0-5.3,2.4-5.3,5.3v18.7
				C2.4,29.4,4.8,31.8,7.7,31.8z"/>
		</defs>
		<clipPath id="SVGID_2_">
			<use xlink:href="#SVGID_1_"  style="overflow:visible;"/>
		</clipPath>
		<g class="st0">
			<g>
				<path id="SVGID_3_" class="st1" d="M7.1,2.5c-2.6,0-4.7,2.1-4.7,4.7v19.9c0,2.6,2.1,4.7,4.7,4.7h32.2c2.6,0,4.7-2.1,4.7-4.7V7.2
					c0-2.6-2.1-4.7-4.7-4.7C39.3,2.5,7.1,2.5,7.1,2.5z"/>
			</g>
			<g>
				<defs>
					<path id="SVGID_4_" d="M7.1,2.5c-2.6,0-4.7,2.1-4.7,4.7v19.9c0,2.6,2.1,4.7,4.7,4.7h32.2c2.6,0,4.7-2.1,4.7-4.7V7.2
						c0-2.6-2.1-4.7-4.7-4.7C39.3,2.5,7.1,2.5,7.1,2.5z"/>
				</defs>
				<defs>
					<path id="SVGID_5_" d="M7.1,2.5c-2.6,0-4.7,2.1-4.7,4.7v19.9c0,2.6,2.1,4.7,4.7,4.7h32.2c2.6,0,4.7-2.1,4.7-4.7V7.2
						c0-2.6-2.1-4.7-4.7-4.7C39.3,2.5,7.1,2.5,7.1,2.5z"/>
				</defs>
				<clipPath id="SVGID_6_">
					<use xlink:href="#SVGID_4_"  style="overflow:visible;"/>
				</clipPath>
				<clipPath id="SVGID_7_" class="st2">
					<use xlink:href="#SVGID_5_"  style="overflow:visible;"/>
				</clipPath>
				<path class="st3" d="M39.3,31.8H7.1c-2.6,0-4.7-2.1-4.7-4.7V7.2c0-2.6,2.1-4.7,4.7-4.7h32.2c2.6,0,4.7,2.1,4.7,4.7v19.9
					C44,29.7,41.9,31.8,39.3,31.8"/>
				<path class="st3" d="M39.3,31.8H7.1c-2.6,0-4.7-2.1-4.7-4.7V7.2c0-2.6,2.1-4.7,4.7-4.7h32.2c2.6,0,4.7,2.1,4.7,4.7v19.9
					C44,29.7,41.9,31.8,39.3,31.8"/>
			</g>
		</g>
	</g>
	<path class="st4" d="M26.7,19.8c-0.1,0.4-0.1,0.8-0.2,1.2c0,0.1-0.2,0.3-0.3,0.4c-0.4,0.3-0.7,0.6-0.9,1.1
		c-0.3,0.7-0.4,1.5-0.3,2.3c0.1,0.3,0.2,0.5,0.5,0.6c0.2,0.1,0.5,0.1,0.7,0.1c0.2,0,0.4-0.1,0.4-0.4c0-0.2-0.1-0.4-0.4-0.4
		c-0.1,0-0.3,0-0.5,0c-0.1,0-0.1,0-0.1-0.1c-0.1-0.5,0-1,0.2-1.4c0.2-0.4,0.4-0.7,0.7-1c0.2-0.3,0.5-0.2,0.7,0
		c0.4,0.4,0.8,0.9,0.8,1.5c0,0.3,0,0.6,0,1h-0.5c-0.2,0-0.4,0.1-0.4,0.4c0,0.2,0.2,0.4,0.4,0.4c0.2,0,0.4,0,0.6-0.1
		c0.4-0.1,0.5-0.4,0.6-0.7c0-0.6-0.1-1.1-0.2-1.6c-0.1-0.3-0.2-0.7-0.4-0.9c-0.2-0.2-0.4-0.4-0.7-0.6c-0.2-0.2-0.4-0.4-0.3-0.7
		c0.1-0.3,0.1-0.6,0.2-0.8c0.1-0.3,0.3-0.5,0.7-0.6c0.2,0,0.4-0.1,0.5-0.1c0.2,0.6,0.6,1,1,1.4c0.7,0.6,1.4,1.3,2.1,1.9
		c0.3-0.3,0.6-0.5,0.9-0.7c0.6-0.5,1.1-1,1.7-1.6c0.3-0.3,0.5-0.6,0.6-1c0.8,0.1,1,0.1,1.3,0.9c0.1,0.3,0.1,0.6,0.2,0.9
		c0,0.1-0.1,0.1-0.1,0.2c-0.5,0.2-0.8,0.6-0.8,1.1c0,0.5,0.2,0.9,0.7,1.2c0.6,0.3,1.4,0,1.7-0.6c0.3-0.7,0-1.4-0.7-1.7
		c-0.1,0-0.2-0.1-0.2-0.2c-0.1-0.4-0.1-0.8-0.2-1.2c0.4,0.2,0.7,0.4,1.1,0.7c1.2,1.1,1.8,2.5,1.7,4.2c0,0.2-0.1,0.5-0.1,0.7
		c-0.2,0.8-0.8,1.3-1.6,1.4c-0.7,0.2-1.5,0.2-2.2,0.2h-6.1c-0.8,0-1.5,0-2.3,0c-0.6,0-1.2-0.1-1.7-0.3c-0.8-0.3-1.3-0.9-1.4-1.8
		c-0.3-2.1,0.8-4.1,2.6-5.1C26.7,19.8,26.7,19.8,26.7,19.8"/>
	<path class="st4" d="M31.7,9.7c2.2,0,4,1.6,4.3,3.6c0.1,0.9,0,1.8-0.3,2.7c-0.4,1.1-1,2.1-1.8,3c-0.5,0.4-1,0.8-1.6,0.9
		c-0.7,0.1-1.4-0.1-2-0.5c-0.8-0.6-1.4-1.3-1.8-2.2c-0.6-1.1-0.9-2.2-0.9-3.4c0-2,1.6-3.8,3.6-4.1C31.3,9.7,31.6,9.7,31.7,9.7"/>
	<path class="st4" d="M17.4,18.6c-1.2,1.2-2.9,1.2-4.1,0c0,0.3-0.2,0.3-0.4,0.3c-0.4,0.2-0.8,0-1.1-0.2c-0.7-0.5-1.3-1.1-1.4-2
		c-0.1-0.5,0-1,0.1-1.6c0.3-1.5,0.9-2.8,1.8-4c0.5-0.6,1-1.1,1.7-1.5c1.3-0.6,2.5-0.4,3.6,0.5c0.8,0.7,1.4,1.5,1.9,2.5
		c0.5,1,0.9,2.2,1,3.3c0.1,1-0.3,1.9-1.1,2.5c-0.1,0.1-0.1,0.1-0.2,0.2c-0.6,0.4-0.8,0.5-1.5,0.2C17.5,18.8,17.5,18.7,17.4,18.6
		 M12.6,14.8c-0.1,0-0.1,0-0.1,0c-0.4-0.1-0.7,0.1-0.7,0.6c0,0.4,0.2,0.8,0.5,1.1c0.1,0.1,0.4,0.2,0.6,0.3c0.1,0,0.2,0.1,0.2,0.2
		c0.2,0.4,0.4,0.8,0.7,1.2c1,1.2,2.5,1.2,3.4,0c0.3-0.3,0.4-0.7,0.6-1c0.1-0.2,0.1-0.3,0.4-0.3c0.1,0,0.2-0.1,0.3-0.1
		c0.4-0.3,0.6-0.8,0.6-1.3c0-0.1,0-0.2-0.1-0.3c-0.1-0.2-0.3-0.3-0.6-0.2c-0.2,0-0.2,0.2-0.2,0.3c0,0.2-0.1,0.5-0.1,0.7
		c-0.7,0-1.2-0.2-1.8-0.5c-0.9-0.5-1.7-1.2-2.4-2c-0.2-0.2-0.4-0.4-0.6-0.7C12.9,13.3,12.8,14,12.6,14.8"/>
	<path class="st4" d="M18.7,19.8c0.2,0,0.4,0.1,0.6,0.1c0.4,0.1,0.8,0.2,1.2,0.4c1.1,0.4,1.7,1.2,2.1,2.3c0.3,0.9,0.5,1.8,0.7,2.7v0
		c0.1,0.3,0,0.6-0.3,0.8c-0.4,0.4-1.1,0.6-1.5,0.6c0-0.6-0.1-1.2-0.1-1.8c0-0.5-0.1-1-0.1-1.5c0,0,0-0.1,0-0.1
		c0-0.2-0.2-0.3-0.3-0.3c-0.2,0-0.3,0.2-0.3,0.3c0.1,0.8,0.1,1.6,0.2,2.4c0,0.3,0.1,0.6,0.1,0.8c0,0.1-0.1,0.2-0.1,0.3
		c-0.3,0.3-0.6,0.5-1,0.6c-0.7,0.3-1.5,0.5-2.3,0.6c-0.4,0-0.8,0.1-1.3,0.1c0-0.1,0-0.2,0-0.2v-2.1c0-0.1,0-0.2-0.1-0.3
		c-0.1-0.4-0.3-0.9-0.5-1.3c0-0.1,0-0.2,0-0.2c0.7-1.4,1.4-2.8,2-4.2c0.1-0.1,0.1-0.1,0.2-0.1c0.4,0.1,0.3,0,0.3,0.4V22
		c0,0.1,0,0.2-0.1,0.2c-0.4,0.3-0.4,0.8-0.1,1.1c0.3,0.3,0.8,0.3,1.1,0c0.3-0.3,0.3-0.8-0.1-1.1c-0.1,0-0.1-0.1-0.1-0.2
		C18.7,21.3,18.7,20.6,18.7,19.8C18.7,19.8,18.7,19.8,18.7,19.8"/>
	<path class="st4" d="M9.4,26.7c-0.4,0-0.7-0.1-1-0.2c-0.3-0.2-0.6-0.4-0.8-0.6c0,0-0.1-0.1-0.1-0.2c0.2-0.9,0.4-1.8,0.6-2.8
		c0.2-0.7,0.6-1.4,1.2-2c0.5-0.4,1-0.7,1.7-0.9c0.3-0.1,0.7-0.2,1.1-0.3V22c0,0-0.1,0-0.1,0c-0.8,0.2-1.2,0.7-1.2,1.5v0.9
		c0,0.2,0.1,0.4,0.3,0.4c0.2,0,0.3-0.1,0.3-0.4v-0.9c0-0.6,0.4-0.9,0.9-0.9h0.3c0.5,0,0.9,0.4,0.9,0.9v0.9c0,0.2,0.1,0.4,0.3,0.4
		c0.2,0,0.3-0.1,0.3-0.4v-1c0-0.7-0.5-1.3-1.2-1.4c-0.1,0-0.1,0-0.2,0c0-0.1,0-0.1,0-0.2v-2c0-0.1,0-0.2,0.2-0.3
		c0.1,0,0.2,0,0.3-0.1c0.2,0.4,0.3,0.9,0.5,1.3c0.6,1.6,1.1,3.1,1.7,4.7c0,0.1,0.1,0.2,0.1,0.3v2.1v0.2c-0.4,0-0.8,0-1.2,0
		c-1-0.1-1.9-0.2-2.9-0.6c-0.4-0.2-0.8-0.3-1.2-0.7C10,26.7,10,26.6,10,26.4c0.1-1,0.2-2,0.3-3c0,0,0-0.1,0-0.1
		c0-0.2-0.1-0.3-0.3-0.3c-0.1,0-0.3,0.1-0.3,0.3c0,0.4-0.1,0.8-0.1,1.2C9.5,25.1,9.5,25.9,9.4,26.7"/>
</g>
</svg>
