<?xml version="1.0" encoding="utf-8"?>
<!-- Generator: Adobe Illustrator 24.0.1, SVG Export Plug-In . SVG Version: 6.00 Build 0)  -->
<svg version="1.1" id="Layer_1" xmlns="http://www.w3.org/2000/svg" xmlns:xlink="http://www.w3.org/1999/xlink" x="0px" y="0px"
	 viewBox="0 0 47 35.4" style="enable-background:new 0 0 47 35.4;" xml:space="preserve">
<style type="text/css">
	.st0{clip-path:url(#SVGID_9_);}
	.st1{clip-path:url(#SVGID_17_);}
	.st2{clip-path:url(#SVGID_23_);}
	.st3{clip-path:url(#SVGID_28_);}
	.st4{clip-path:url(#SVGID_29_);}
	.st5{clip-path:url(#SVGID_35_);}
	.st6{clip-path:url(#SVGID_40_);}
	.st7{clip-path:url(#SVGID_41_);}
	.st8{clip-path:url(#SVGID_47_);}
	.st9{clip-path:url(#SVGID_48_);}
	.st10{clip-path:url(#SVGID_49_);}
	.st11{clip-path:url(#SVGID_56_);}
	.st12{clip-path:url(#SVGID_57_);}
	.st13{clip-path:url(#SVGID_58_);}
	.st14{clip-path:url(#SVGID_59_);}
	.st15{clip-path:url(#SVGID_60_);fill:#022A41;}
	.st16{clip-path:url(#SVGID_67_);}
	.st17{clip-path:url(#SVGID_73_);}
	.st18{clip-path:url(#SVGID_78_);}
	.st19{clip-path:url(#SVGID_79_);}
	.st20{clip-path:url(#SVGID_85_);}
	.st21{clip-path:url(#SVGID_90_);}
	.st22{clip-path:url(#SVGID_91_);}
	.st23{clip-path:url(#SVGID_97_);}
	.st24{clip-path:url(#SVGID_98_);}
	.st25{clip-path:url(#SVGID_99_);}
	.st26{clip-path:url(#SVGID_106_);}
	.st27{clip-path:url(#SVGID_107_);}
	.st28{clip-path:url(#SVGID_108_);}
	.st29{clip-path:url(#SVGID_109_);}
	.st30{clip-path:url(#SVGID_110_);fill:#022A41;}
	.st31{fill:#FFFFFF;}
</style>
<g>
	<g>
		<g>
			<g>
				<g>
					<defs>
						<path id="SVGID_1_" d="M7.1,2.5c-2.6,0-4.7,2.1-4.7,4.7v19.9c0,2.6,2.1,4.7,4.7,4.7h32.2c2.6,0,4.7-2.1,4.7-4.7V7.2
							c0-2.6-2.1-4.7-4.7-4.7H7.1z"/>
					</defs>
					<clipPath id="SVGID_2_">
						<use xlink:href="#SVGID_1_"  style="overflow:visible;"/>
					</clipPath>
				</g>
			</g>
		</g>
		<g>
			<g>
				<g>
					<defs>
						<path id="SVGID_3_" d="M7.1,2.5c-2.6,0-4.7,2.1-4.7,4.7v19.9c0,2.6,2.1,4.7,4.7,4.7h32.2c2.6,0,4.7-2.1,4.7-4.7V7.2
							c0-2.6-2.1-4.7-4.7-4.7H7.1z"/>
					</defs>
					<clipPath id="SVGID_4_">
						<use xlink:href="#SVGID_3_"  style="overflow:visible;"/>
					</clipPath>
				</g>
			</g>
			<g>
				<g>
					<defs>
						<path id="SVGID_5_" d="M7.1,2.5c-2.6,0-4.7,2.1-4.7,4.7v19.9c0,2.6,2.1,4.7,4.7,4.7h32.2c2.6,0,4.7-2.1,4.7-4.7V7.2
							c0-2.6-2.1-4.7-4.7-4.7H7.1z"/>
					</defs>
					<clipPath id="SVGID_6_">
						<use xlink:href="#SVGID_5_"  style="overflow:visible;"/>
					</clipPath>
				</g>
				<g>
					<defs>
						<path id="SVGID_7_" d="M7.1,2.5c-2.6,0-4.7,2.1-4.7,4.7v19.9c0,2.6,2.1,4.7,4.7,4.7h32.2c2.6,0,4.7-2.1,4.7-4.7V7.2
							c0-2.6-2.1-4.7-4.7-4.7H7.1z"/>
					</defs>
					<defs>
						<path id="SVGID_8_" d="M7.1,2.5c-2.6,0-4.7,2.1-4.7,4.7v19.9c0,2.6,2.1,4.7,4.7,4.7h32.2c2.6,0,4.7-2.1,4.7-4.7V7.2
							c0-2.6-2.1-4.7-4.7-4.7H7.1z"/>
					</defs>
					<clipPath id="SVGID_9_">
						<use xlink:href="#SVGID_7_"  style="overflow:visible;"/>
					</clipPath>
					<clipPath id="SVGID_10_" class="st0">
						<use xlink:href="#SVGID_8_"  style="overflow:visible;"/>
					</clipPath>
				</g>
			</g>
		</g>
		<g>
			<g>
				<g>
					<defs>
						<path id="SVGID_11_" d="M7.1,2.5c-2.6,0-4.7,2.1-4.7,4.7v19.9c0,2.6,2.1,4.7,4.7,4.7h32.2c2.6,0,4.7-2.1,4.7-4.7V7.2
							c0-2.6-2.1-4.7-4.7-4.7H7.1z"/>
					</defs>
					<clipPath id="SVGID_12_">
						<use xlink:href="#SVGID_11_"  style="overflow:visible;"/>
					</clipPath>
				</g>
			</g>
			<g>
				<g>
					<defs>
						<path id="SVGID_13_" d="M7.1,2.5c-2.6,0-4.7,2.1-4.7,4.7v19.9c0,2.6,2.1,4.7,4.7,4.7h32.2c2.6,0,4.7-2.1,4.7-4.7V7.2
							c0-2.6-2.1-4.7-4.7-4.7H7.1z"/>
					</defs>
					<clipPath id="SVGID_14_">
						<use xlink:href="#SVGID_13_"  style="overflow:visible;"/>
					</clipPath>
				</g>
				<g>
					<defs>
						<path id="SVGID_15_" d="M7.1,2.5c-2.6,0-4.7,2.1-4.7,4.7v19.9c0,2.6,2.1,4.7,4.7,4.7h32.2c2.6,0,4.7-2.1,4.7-4.7V7.2
							c0-2.6-2.1-4.7-4.7-4.7H7.1z"/>
					</defs>
					<defs>
						<path id="SVGID_16_" d="M7.1,2.5c-2.6,0-4.7,2.1-4.7,4.7v19.9c0,2.6,2.1,4.7,4.7,4.7h32.2c2.6,0,4.7-2.1,4.7-4.7V7.2
							c0-2.6-2.1-4.7-4.7-4.7H7.1z"/>
					</defs>
					<clipPath id="SVGID_17_">
						<use xlink:href="#SVGID_15_"  style="overflow:visible;"/>
					</clipPath>
					<clipPath id="SVGID_18_" class="st1">
						<use xlink:href="#SVGID_16_"  style="overflow:visible;"/>
					</clipPath>
				</g>
			</g>
			<g>
				<g>
					<defs>
						<path id="SVGID_19_" d="M7.1,2.5c-2.6,0-4.7,2.1-4.7,4.7v19.9c0,2.6,2.1,4.7,4.7,4.7h32.2c2.6,0,4.7-2.1,4.7-4.7V7.2
							c0-2.6-2.1-4.7-4.7-4.7H7.1z"/>
					</defs>
					<clipPath id="SVGID_20_">
						<use xlink:href="#SVGID_19_"  style="overflow:visible;"/>
					</clipPath>
				</g>
				<g>
					<defs>
						<path id="SVGID_21_" d="M7.1,2.5c-2.6,0-4.7,2.1-4.7,4.7v19.9c0,2.6,2.1,4.7,4.7,4.7h32.2c2.6,0,4.7-2.1,4.7-4.7V7.2
							c0-2.6-2.1-4.7-4.7-4.7H7.1z"/>
					</defs>
					<defs>
						<path id="SVGID_22_" d="M7.1,2.5c-2.6,0-4.7,2.1-4.7,4.7v19.9c0,2.6,2.1,4.7,4.7,4.7h32.2c2.6,0,4.7-2.1,4.7-4.7V7.2
							c0-2.6-2.1-4.7-4.7-4.7H7.1z"/>
					</defs>
					<clipPath id="SVGID_23_">
						<use xlink:href="#SVGID_21_"  style="overflow:visible;"/>
					</clipPath>
					<clipPath id="SVGID_24_" class="st2">
						<use xlink:href="#SVGID_22_"  style="overflow:visible;"/>
					</clipPath>
				</g>
				<g>
					<defs>
						<path id="SVGID_25_" d="M7.1,2.5c-2.6,0-4.7,2.1-4.7,4.7v19.9c0,2.6,2.1,4.7,4.7,4.7h32.2c2.6,0,4.7-2.1,4.7-4.7V7.2
							c0-2.6-2.1-4.7-4.7-4.7H7.1z"/>
					</defs>
					<defs>
						<path id="SVGID_26_" d="M7.1,2.5c-2.6,0-4.7,2.1-4.7,4.7v19.9c0,2.6,2.1,4.7,4.7,4.7h32.2c2.6,0,4.7-2.1,4.7-4.7V7.2
							c0-2.6-2.1-4.7-4.7-4.7H7.1z"/>
					</defs>
					<defs>
						<path id="SVGID_27_" d="M7.1,2.5c-2.6,0-4.7,2.1-4.7,4.7v19.9c0,2.6,2.1,4.7,4.7,4.7h32.2c2.6,0,4.7-2.1,4.7-4.7V7.2
							c0-2.6-2.1-4.7-4.7-4.7H7.1z"/>
					</defs>
					<clipPath id="SVGID_28_">
						<use xlink:href="#SVGID_25_"  style="overflow:visible;"/>
					</clipPath>
					<clipPath id="SVGID_29_" class="st3">
						<use xlink:href="#SVGID_26_"  style="overflow:visible;"/>
					</clipPath>
					<clipPath id="SVGID_30_" class="st4">
						<use xlink:href="#SVGID_27_"  style="overflow:visible;"/>
					</clipPath>
				</g>
			</g>
			<g>
				<g>
					<defs>
						<path id="SVGID_31_" d="M7.1,2.5c-2.6,0-4.7,2.1-4.7,4.7v19.9c0,2.6,2.1,4.7,4.7,4.7h32.2c2.6,0,4.7-2.1,4.7-4.7V7.2
							c0-2.6-2.1-4.7-4.7-4.7H7.1z"/>
					</defs>
					<clipPath id="SVGID_32_">
						<use xlink:href="#SVGID_31_"  style="overflow:visible;"/>
					</clipPath>
				</g>
				<g>
					<defs>
						<path id="SVGID_33_" d="M7.1,2.5c-2.6,0-4.7,2.1-4.7,4.7v19.9c0,2.6,2.1,4.7,4.7,4.7h32.2c2.6,0,4.7-2.1,4.7-4.7V7.2
							c0-2.6-2.1-4.7-4.7-4.7H7.1z"/>
					</defs>
					<defs>
						<path id="SVGID_34_" d="M7.1,2.5c-2.6,0-4.7,2.1-4.7,4.7v19.9c0,2.6,2.1,4.7,4.7,4.7h32.2c2.6,0,4.7-2.1,4.7-4.7V7.2
							c0-2.6-2.1-4.7-4.7-4.7H7.1z"/>
					</defs>
					<clipPath id="SVGID_35_">
						<use xlink:href="#SVGID_33_"  style="overflow:visible;"/>
					</clipPath>
					<clipPath id="SVGID_36_" class="st5">
						<use xlink:href="#SVGID_34_"  style="overflow:visible;"/>
					</clipPath>
				</g>
				<g>
					<defs>
						<path id="SVGID_37_" d="M7.1,2.5c-2.6,0-4.7,2.1-4.7,4.7v19.9c0,2.6,2.1,4.7,4.7,4.7h32.2c2.6,0,4.7-2.1,4.7-4.7V7.2
							c0-2.6-2.1-4.7-4.7-4.7H7.1z"/>
					</defs>
					<defs>
						<path id="SVGID_38_" d="M7.1,2.5c-2.6,0-4.7,2.1-4.7,4.7v19.9c0,2.6,2.1,4.7,4.7,4.7h32.2c2.6,0,4.7-2.1,4.7-4.7V7.2
							c0-2.6-2.1-4.7-4.7-4.7H7.1z"/>
					</defs>
					<defs>
						<path id="SVGID_39_" d="M7.1,2.5c-2.6,0-4.7,2.1-4.7,4.7v19.9c0,2.6,2.1,4.7,4.7,4.7h32.2c2.6,0,4.7-2.1,4.7-4.7V7.2
							c0-2.6-2.1-4.7-4.7-4.7H7.1z"/>
					</defs>
					<clipPath id="SVGID_40_">
						<use xlink:href="#SVGID_37_"  style="overflow:visible;"/>
					</clipPath>
					<clipPath id="SVGID_41_" class="st6">
						<use xlink:href="#SVGID_38_"  style="overflow:visible;"/>
					</clipPath>
					<clipPath id="SVGID_42_" class="st7">
						<use xlink:href="#SVGID_39_"  style="overflow:visible;"/>
					</clipPath>
				</g>
				<g>
					<defs>
						<path id="SVGID_43_" d="M7.1,2.5c-2.6,0-4.7,2.1-4.7,4.7v19.9c0,2.6,2.1,4.7,4.7,4.7h32.2c2.6,0,4.7-2.1,4.7-4.7V7.2
							c0-2.6-2.1-4.7-4.7-4.7H7.1z"/>
					</defs>
					<defs>
						<path id="SVGID_44_" d="M7.1,2.5c-2.6,0-4.7,2.1-4.7,4.7v19.9c0,2.6,2.1,4.7,4.7,4.7h32.2c2.6,0,4.7-2.1,4.7-4.7V7.2
							c0-2.6-2.1-4.7-4.7-4.7H7.1z"/>
					</defs>
					<defs>
						<path id="SVGID_45_" d="M7.1,2.5c-2.6,0-4.7,2.1-4.7,4.7v19.9c0,2.6,2.1,4.7,4.7,4.7h32.2c2.6,0,4.7-2.1,4.7-4.7V7.2
							c0-2.6-2.1-4.7-4.7-4.7H7.1z"/>
					</defs>
					<defs>
						<path id="SVGID_46_" d="M7.1,2.5c-2.6,0-4.7,2.1-4.7,4.7v19.9c0,2.6,2.1,4.7,4.7,4.7h32.2c2.6,0,4.7-2.1,4.7-4.7V7.2
							c0-2.6-2.1-4.7-4.7-4.7H7.1z"/>
					</defs>
					<clipPath id="SVGID_47_">
						<use xlink:href="#SVGID_43_"  style="overflow:visible;"/>
					</clipPath>
					<clipPath id="SVGID_48_" class="st8">
						<use xlink:href="#SVGID_44_"  style="overflow:visible;"/>
					</clipPath>
					<clipPath id="SVGID_49_" class="st9">
						<use xlink:href="#SVGID_45_"  style="overflow:visible;"/>
					</clipPath>
					<clipPath id="SVGID_50_" class="st10">
						<use xlink:href="#SVGID_46_"  style="overflow:visible;"/>
					</clipPath>
				</g>
				<g>
					<defs>
						<path id="SVGID_51_" d="M7.1,2.5c-2.6,0-4.7,2.1-4.7,4.7v19.9c0,2.6,2.1,4.7,4.7,4.7h32.2c2.6,0,4.7-2.1,4.7-4.7V7.2
							c0-2.6-2.1-4.7-4.7-4.7H7.1z"/>
					</defs>
					<defs>
						<path id="SVGID_52_" d="M7.1,2.5c-2.6,0-4.7,2.1-4.7,4.7v19.9c0,2.6,2.1,4.7,4.7,4.7h32.2c2.6,0,4.7-2.1,4.7-4.7V7.2
							c0-2.6-2.1-4.7-4.7-4.7H7.1z"/>
					</defs>
					<defs>
						<path id="SVGID_53_" d="M7.1,2.5c-2.6,0-4.7,2.1-4.7,4.7v19.9c0,2.6,2.1,4.7,4.7,4.7h32.2c2.6,0,4.7-2.1,4.7-4.7V7.2
							c0-2.6-2.1-4.7-4.7-4.7H7.1z"/>
					</defs>
					<defs>
						<path id="SVGID_54_" d="M7.1,2.5c-2.6,0-4.7,2.1-4.7,4.7v19.9c0,2.6,2.1,4.7,4.7,4.7h32.2c2.6,0,4.7-2.1,4.7-4.7V7.2
							c0-2.6-2.1-4.7-4.7-4.7H7.1z"/>
					</defs>
					<defs>
						<path id="SVGID_55_" d="M7.1,2.5c-2.6,0-4.7,2.1-4.7,4.7v19.9c0,2.6,2.1,4.7,4.7,4.7h32.2c2.6,0,4.7-2.1,4.7-4.7V7.2
							c0-2.6-2.1-4.7-4.7-4.7H7.1z"/>
					</defs>
					<clipPath id="SVGID_56_">
						<use xlink:href="#SVGID_51_"  style="overflow:visible;"/>
					</clipPath>
					<clipPath id="SVGID_57_" class="st11">
						<use xlink:href="#SVGID_52_"  style="overflow:visible;"/>
					</clipPath>
					<clipPath id="SVGID_58_" class="st12">
						<use xlink:href="#SVGID_53_"  style="overflow:visible;"/>
					</clipPath>
					<clipPath id="SVGID_59_" class="st13">
						<use xlink:href="#SVGID_54_"  style="overflow:visible;"/>
					</clipPath>
					<clipPath id="SVGID_60_" class="st14">
						<use xlink:href="#SVGID_55_"  style="overflow:visible;"/>
					</clipPath>
					<path class="st15" d="M39.3,31.8H7.1c-2.6,0-4.7-2.1-4.7-4.7V7.2c0-2.6,2.1-4.7,4.7-4.7h32.2c2.6,0,4.7,2.1,4.7,4.7v19.9
						C44,29.7,41.9,31.8,39.3,31.8"/>
				</g>
			</g>
		</g>
		<g>
			<g>
				<g>
					<defs>
						<path id="SVGID_61_" d="M7.1,2.5c-2.6,0-4.7,2.1-4.7,4.7v19.9c0,2.6,2.1,4.7,4.7,4.7h32.2c2.6,0,4.7-2.1,4.7-4.7V7.2
							c0-2.6-2.1-4.7-4.7-4.7H7.1z"/>
					</defs>
					<clipPath id="SVGID_62_">
						<use xlink:href="#SVGID_61_"  style="overflow:visible;"/>
					</clipPath>
				</g>
			</g>
			<g>
				<g>
					<defs>
						<path id="SVGID_63_" d="M7.1,2.5c-2.6,0-4.7,2.1-4.7,4.7v19.9c0,2.6,2.1,4.7,4.7,4.7h32.2c2.6,0,4.7-2.1,4.7-4.7V7.2
							c0-2.6-2.1-4.7-4.7-4.7H7.1z"/>
					</defs>
					<clipPath id="SVGID_64_">
						<use xlink:href="#SVGID_63_"  style="overflow:visible;"/>
					</clipPath>
				</g>
				<g>
					<defs>
						<path id="SVGID_65_" d="M7.1,2.5c-2.6,0-4.7,2.1-4.7,4.7v19.9c0,2.6,2.1,4.7,4.7,4.7h32.2c2.6,0,4.7-2.1,4.7-4.7V7.2
							c0-2.6-2.1-4.7-4.7-4.7H7.1z"/>
					</defs>
					<defs>
						<path id="SVGID_66_" d="M7.1,2.5c-2.6,0-4.7,2.1-4.7,4.7v19.9c0,2.6,2.1,4.7,4.7,4.7h32.2c2.6,0,4.7-2.1,4.7-4.7V7.2
							c0-2.6-2.1-4.7-4.7-4.7H7.1z"/>
					</defs>
					<clipPath id="SVGID_67_">
						<use xlink:href="#SVGID_65_"  style="overflow:visible;"/>
					</clipPath>
					<clipPath id="SVGID_68_" class="st16">
						<use xlink:href="#SVGID_66_"  style="overflow:visible;"/>
					</clipPath>
				</g>
			</g>
			<g>
				<g>
					<defs>
						<path id="SVGID_69_" d="M7.1,2.5c-2.6,0-4.7,2.1-4.7,4.7v19.9c0,2.6,2.1,4.7,4.7,4.7h32.2c2.6,0,4.7-2.1,4.7-4.7V7.2
							c0-2.6-2.1-4.7-4.7-4.7H7.1z"/>
					</defs>
					<clipPath id="SVGID_70_">
						<use xlink:href="#SVGID_69_"  style="overflow:visible;"/>
					</clipPath>
				</g>
				<g>
					<defs>
						<path id="SVGID_71_" d="M7.1,2.5c-2.6,0-4.7,2.1-4.7,4.7v19.9c0,2.6,2.1,4.7,4.7,4.7h32.2c2.6,0,4.7-2.1,4.7-4.7V7.2
							c0-2.6-2.1-4.7-4.7-4.7H7.1z"/>
					</defs>
					<defs>
						<path id="SVGID_72_" d="M7.1,2.5c-2.6,0-4.7,2.1-4.7,4.7v19.9c0,2.6,2.1,4.7,4.7,4.7h32.2c2.6,0,4.7-2.1,4.7-4.7V7.2
							c0-2.6-2.1-4.7-4.7-4.7H7.1z"/>
					</defs>
					<clipPath id="SVGID_73_">
						<use xlink:href="#SVGID_71_"  style="overflow:visible;"/>
					</clipPath>
					<clipPath id="SVGID_74_" class="st17">
						<use xlink:href="#SVGID_72_"  style="overflow:visible;"/>
					</clipPath>
				</g>
				<g>
					<defs>
						<path id="SVGID_75_" d="M7.1,2.5c-2.6,0-4.7,2.1-4.7,4.7v19.9c0,2.6,2.1,4.7,4.7,4.7h32.2c2.6,0,4.7-2.1,4.7-4.7V7.2
							c0-2.6-2.1-4.7-4.7-4.7H7.1z"/>
					</defs>
					<defs>
						<path id="SVGID_76_" d="M7.1,2.5c-2.6,0-4.7,2.1-4.7,4.7v19.9c0,2.6,2.1,4.7,4.7,4.7h32.2c2.6,0,4.7-2.1,4.7-4.7V7.2
							c0-2.6-2.1-4.7-4.7-4.7H7.1z"/>
					</defs>
					<defs>
						<path id="SVGID_77_" d="M7.1,2.5c-2.6,0-4.7,2.1-4.7,4.7v19.9c0,2.6,2.1,4.7,4.7,4.7h32.2c2.6,0,4.7-2.1,4.7-4.7V7.2
							c0-2.6-2.1-4.7-4.7-4.7H7.1z"/>
					</defs>
					<clipPath id="SVGID_78_">
						<use xlink:href="#SVGID_75_"  style="overflow:visible;"/>
					</clipPath>
					<clipPath id="SVGID_79_" class="st18">
						<use xlink:href="#SVGID_76_"  style="overflow:visible;"/>
					</clipPath>
					<clipPath id="SVGID_80_" class="st19">
						<use xlink:href="#SVGID_77_"  style="overflow:visible;"/>
					</clipPath>
				</g>
			</g>
			<g>
				<g>
					<defs>
						<path id="SVGID_81_" d="M7.1,2.5c-2.6,0-4.7,2.1-4.7,4.7v19.9c0,2.6,2.1,4.7,4.7,4.7h32.2c2.6,0,4.7-2.1,4.7-4.7V7.2
							c0-2.6-2.1-4.7-4.7-4.7H7.1z"/>
					</defs>
					<clipPath id="SVGID_82_">
						<use xlink:href="#SVGID_81_"  style="overflow:visible;"/>
					</clipPath>
				</g>
				<g>
					<defs>
						<path id="SVGID_83_" d="M7.1,2.5c-2.6,0-4.7,2.1-4.7,4.7v19.9c0,2.6,2.1,4.7,4.7,4.7h32.2c2.6,0,4.7-2.1,4.7-4.7V7.2
							c0-2.6-2.1-4.7-4.7-4.7H7.1z"/>
					</defs>
					<defs>
						<path id="SVGID_84_" d="M7.1,2.5c-2.6,0-4.7,2.1-4.7,4.7v19.9c0,2.6,2.1,4.7,4.7,4.7h32.2c2.6,0,4.7-2.1,4.7-4.7V7.2
							c0-2.6-2.1-4.7-4.7-4.7H7.1z"/>
					</defs>
					<clipPath id="SVGID_85_">
						<use xlink:href="#SVGID_83_"  style="overflow:visible;"/>
					</clipPath>
					<clipPath id="SVGID_86_" class="st20">
						<use xlink:href="#SVGID_84_"  style="overflow:visible;"/>
					</clipPath>
				</g>
				<g>
					<defs>
						<path id="SVGID_87_" d="M7.1,2.5c-2.6,0-4.7,2.1-4.7,4.7v19.9c0,2.6,2.1,4.7,4.7,4.7h32.2c2.6,0,4.7-2.1,4.7-4.7V7.2
							c0-2.6-2.1-4.7-4.7-4.7H7.1z"/>
					</defs>
					<defs>
						<path id="SVGID_88_" d="M7.1,2.5c-2.6,0-4.7,2.1-4.7,4.7v19.9c0,2.6,2.1,4.7,4.7,4.7h32.2c2.6,0,4.7-2.1,4.7-4.7V7.2
							c0-2.6-2.1-4.7-4.7-4.7H7.1z"/>
					</defs>
					<defs>
						<path id="SVGID_89_" d="M7.1,2.5c-2.6,0-4.7,2.1-4.7,4.7v19.9c0,2.6,2.1,4.7,4.7,4.7h32.2c2.6,0,4.7-2.1,4.7-4.7V7.2
							c0-2.6-2.1-4.7-4.7-4.7H7.1z"/>
					</defs>
					<clipPath id="SVGID_90_">
						<use xlink:href="#SVGID_87_"  style="overflow:visible;"/>
					</clipPath>
					<clipPath id="SVGID_91_" class="st21">
						<use xlink:href="#SVGID_88_"  style="overflow:visible;"/>
					</clipPath>
					<clipPath id="SVGID_92_" class="st22">
						<use xlink:href="#SVGID_89_"  style="overflow:visible;"/>
					</clipPath>
				</g>
				<g>
					<defs>
						<path id="SVGID_93_" d="M7.1,2.5c-2.6,0-4.7,2.1-4.7,4.7v19.9c0,2.6,2.1,4.7,4.7,4.7h32.2c2.6,0,4.7-2.1,4.7-4.7V7.2
							c0-2.6-2.1-4.7-4.7-4.7H7.1z"/>
					</defs>
					<defs>
						<path id="SVGID_94_" d="M7.1,2.5c-2.6,0-4.7,2.1-4.7,4.7v19.9c0,2.6,2.1,4.7,4.7,4.7h32.2c2.6,0,4.7-2.1,4.7-4.7V7.2
							c0-2.6-2.1-4.7-4.7-4.7H7.1z"/>
					</defs>
					<defs>
						<path id="SVGID_95_" d="M7.1,2.5c-2.6,0-4.7,2.1-4.7,4.7v19.9c0,2.6,2.1,4.7,4.7,4.7h32.2c2.6,0,4.7-2.1,4.7-4.7V7.2
							c0-2.6-2.1-4.7-4.7-4.7H7.1z"/>
					</defs>
					<defs>
						<path id="SVGID_96_" d="M7.1,2.5c-2.6,0-4.7,2.1-4.7,4.7v19.9c0,2.6,2.1,4.7,4.7,4.7h32.2c2.6,0,4.7-2.1,4.7-4.7V7.2
							c0-2.6-2.1-4.7-4.7-4.7H7.1z"/>
					</defs>
					<clipPath id="SVGID_97_">
						<use xlink:href="#SVGID_93_"  style="overflow:visible;"/>
					</clipPath>
					<clipPath id="SVGID_98_" class="st23">
						<use xlink:href="#SVGID_94_"  style="overflow:visible;"/>
					</clipPath>
					<clipPath id="SVGID_99_" class="st24">
						<use xlink:href="#SVGID_95_"  style="overflow:visible;"/>
					</clipPath>
					<clipPath id="SVGID_100_" class="st25">
						<use xlink:href="#SVGID_96_"  style="overflow:visible;"/>
					</clipPath>
				</g>
				<g>
					<defs>
						<path id="SVGID_101_" d="M7.1,2.5c-2.6,0-4.7,2.1-4.7,4.7v19.9c0,2.6,2.1,4.7,4.7,4.7h32.2c2.6,0,4.7-2.1,4.7-4.7V7.2
							c0-2.6-2.1-4.7-4.7-4.7H7.1z"/>
					</defs>
					<defs>
						<path id="SVGID_102_" d="M7.1,2.5c-2.6,0-4.7,2.1-4.7,4.7v19.9c0,2.6,2.1,4.7,4.7,4.7h32.2c2.6,0,4.7-2.1,4.7-4.7V7.2
							c0-2.6-2.1-4.7-4.7-4.7H7.1z"/>
					</defs>
					<defs>
						<path id="SVGID_103_" d="M7.1,2.5c-2.6,0-4.7,2.1-4.7,4.7v19.9c0,2.6,2.1,4.7,4.7,4.7h32.2c2.6,0,4.7-2.1,4.7-4.7V7.2
							c0-2.6-2.1-4.7-4.7-4.7H7.1z"/>
					</defs>
					<defs>
						<path id="SVGID_104_" d="M7.1,2.5c-2.6,0-4.7,2.1-4.7,4.7v19.9c0,2.6,2.1,4.7,4.7,4.7h32.2c2.6,0,4.7-2.1,4.7-4.7V7.2
							c0-2.6-2.1-4.7-4.7-4.7H7.1z"/>
					</defs>
					<defs>
						<path id="SVGID_105_" d="M7.1,2.5c-2.6,0-4.7,2.1-4.7,4.7v19.9c0,2.6,2.1,4.7,4.7,4.7h32.2c2.6,0,4.7-2.1,4.7-4.7V7.2
							c0-2.6-2.1-4.7-4.7-4.7H7.1z"/>
					</defs>
					<clipPath id="SVGID_106_">
						<use xlink:href="#SVGID_101_"  style="overflow:visible;"/>
					</clipPath>
					<clipPath id="SVGID_107_" class="st26">
						<use xlink:href="#SVGID_102_"  style="overflow:visible;"/>
					</clipPath>
					<clipPath id="SVGID_108_" class="st27">
						<use xlink:href="#SVGID_103_"  style="overflow:visible;"/>
					</clipPath>
					<clipPath id="SVGID_109_" class="st28">
						<use xlink:href="#SVGID_104_"  style="overflow:visible;"/>
					</clipPath>
					<clipPath id="SVGID_110_" class="st29">
						<use xlink:href="#SVGID_105_"  style="overflow:visible;"/>
					</clipPath>
					<path class="st30" d="M39.3,31.8H7.1c-2.6,0-4.7-2.1-4.7-4.7V7.2c0-2.6,2.1-4.7,4.7-4.7h32.2c2.6,0,4.7,2.1,4.7,4.7v19.9
						C44,29.7,41.9,31.8,39.3,31.8"/>
				</g>
			</g>
		</g>
	</g>
</g>
<g>
	<path class="st31" d="M28.2,24.5c-0.4,0.4-0.7,0.8-1.1,1.1c-0.1,0.1-0.2,0.2-0.3,0.3c-0.3,0.2-0.6,0.2-0.8,0
		c-0.2-0.2-0.2-0.5,0-0.8c0.3-0.4,0.7-0.7,1-1c0.4-0.4,0.8-0.7,1-1.1c0.2-0.4,0-1,0.1-1.5c0-0.4,0-0.8,0-1.2
		c-0.1,0.1-0.1,0.1-0.2,0.1c-1.1,1.2-2.2,2.4-3.4,3.7c-0.1,0.1-0.2,0.3-0.2,0.4c0,1.1,0,2.3,0,3.4c0,0.5-0.4,0.7-0.7,0.6
		c-0.2-0.1-0.3-0.3-0.3-0.5c0-1.2,0-2.4,0-3.6c0,0,0-0.1,0-0.1c0.2-0.3,0-0.5-0.2-0.7c-1-1.1-2-2.2-3.1-3.3
		c-0.1-0.1-0.2-0.1-0.3-0.2c0,0.1-0.1,0.2-0.1,0.3c0,0.8,0,1.6,0,2.4c0,0.1,0.1,0.3,0.2,0.4c0.6,0.6,1.1,1.1,1.7,1.7
		c0.1,0.1,0.1,0.1,0.2,0.2c0.2,0.3,0.2,0.6,0,0.8c-0.2,0.2-0.5,0.2-0.8,0c-0.3-0.3-0.6-0.6-0.9-0.9c-0.1-0.1-0.2-0.3-0.3-0.4
		c0,0-0.1,0-0.1,0c0,0.1,0,0.2,0,0.3c0,1.8,0,3.5,0,5.3h8.4c0-1.8,0-3.5,0-5.3C28.2,24.9,28.2,24.8,28.2,24.5z"/>
	<path class="st31" d="M15.8,23.3c0-0.1,0-0.2,0-0.4c-0.1,0-0.2,0.1-0.3,0.1c-1.3,0.6-2.1,1.6-2.2,3c-0.1,1.4-0.3,2.8-0.4,4.2h2.9
		c0,0,0,0,0,0C15.8,27.9,15.8,25.6,15.8,23.3z"/>
	<path class="st31" d="M18.7,22.3c-0.6,0.1-1.2,0.2-1.8,0.3c0,0.1,0,0.2,0,0.4c0,2.4,0,4.8,0,7.3h1.8c0-2.5,0-5,0-7.6
		C18.7,22.6,18.7,22.4,18.7,22.3z"/>
	<path class="st31" d="M31.1,22.5c-0.6-0.1-1.2-0.2-1.8-0.3c0,0.1,0,0.2,0,0.3c0,2.6,0,5.1,0,7.7h1.8c0-2.4,0-4.9,0-7.3
		C31.1,22.8,31.1,22.7,31.1,22.5z"/>
	<path class="st31" d="M34.9,25.4c-0.3-1.3-1.2-2.2-2.5-2.6c-0.1,0-0.2,0-0.3-0.1c0,0.1,0,0.3,0,0.4c0,2.4,0,4.7,0,7.1h3.3
		c-0.1-0.7-0.1-1.5-0.2-2.2C35.2,27.1,35.1,26.2,34.9,25.4z"/>
	<path class="st31" d="M29.7,18.3c0-0.4,0-0.8,0-1.2c0,0,0,0,0,0c-0.3,0.6-0.6,1.3-0.9,1.9C29.3,19,29.7,18.7,29.7,18.3z"/>
	<path class="st31" d="M28.1,13.2c-2.7,0-5.5,0-8.2,0c-0.5,0-0.6,0.3-0.7,0.7c0,0.3,0,0.7,0,1c0,0,0,0,0,0c0,0.3,0,0.5,0,0.8
		c0.1,2.3,1.8,4.2,4,4.6c2.3,0.3,4.5-1,5.2-3.2c0.4-1.1,0.2-2.3,0.2-3.4C28.7,13.3,28.5,13.2,28.1,13.2z"/>
	<path class="st31" d="M18.2,18.1c0,0.6,0.4,1,1,0.9c-0.3-0.6-0.6-1.3-0.9-1.9C18.2,17.4,18.2,17.7,18.2,18.1z"/>
	<path class="st31" d="M22.7,21.3c0.5,0.5,1,1.1,1.5,1.6c0.6-0.6,1.1-1.2,1.7-1.8C24.8,21.4,23.8,21.5,22.7,21.3z"/>
	<path class="st31" d="M19.7,12.1c2.8,0,5.7,0,8.5,0c0.7,0,1.1,0.3,1.4,0.9c0.2,0.6,0.5,1.1,0.8,1.7c0,0,0-0.1,0-0.1
		c-0.1-1.4-0.2-2.7-0.4-4.1c0-0.1-0.2-0.2-0.3-0.2c-0.2,0-0.3,0-0.5,0c0-1.1-0.3-2-0.9-2.9C27.8,6.5,27,5.9,26,5.5
		c0,0.1,0,0.1,0,0.1c0,0.4-0.3,0.6-0.6,0.6c-0.3,0-0.5-0.3-0.5-0.7c0-0.3,0-0.6,0-0.9c0-0.2-0.1-0.3-0.3-0.3c-0.4,0-0.8,0-1.2,0
		c-0.3,0-0.4,0.1-0.3,0.4c0,0.3,0,0.7,0,1c0,0.3-0.3,0.5-0.5,0.5c-0.3,0-0.5-0.2-0.5-0.5c0-0.1,0-0.2,0-0.3
		c-2.1,0.9-3.2,2.4-3.3,4.7c-0.1,0-0.2,0-0.4,0c-0.3,0-0.4,0.1-0.4,0.4c0,0.8-0.1,1.5-0.2,2.3c0,0.5-0.1,1.1-0.1,1.6
		c0.3-0.5,0.6-1.1,0.8-1.6C18.6,12.4,19.1,12.1,19.7,12.1z M22,8.1c0.1-0.5,0.3-0.9,0.9-1C23.2,7,23.6,7,24,6.9
		C24.4,7,24.8,7,25.2,7.1c0.5,0.1,0.7,0.5,0.8,1c0.1,1.1-0.2,1.9-1.2,2.4c-0.9,0.5-0.8,0.5-1.7,0C22.2,10,21.9,9.2,22,8.1z"/>
	<path class="st31" d="M23.9,9.8c0,0,0.1,0,0.1,0c0.2-0.2,0.6-0.4,0.7-0.7c0.4-0.6,0.1-1-0.5-1c-0.1,0-0.2,0-0.2,0c0,0,0,0,0,0
		c-0.2,0-0.4,0-0.7,0.1c-0.1,0-0.2,0.2-0.3,0.3C23,8.9,23.4,9.6,23.9,9.8z"/>
</g>
</svg>
