<?xml version="1.0" encoding="utf-8"?>
<!-- Generator: Adobe Illustrator 22.1.0, SVG Export Plug-In . SVG Version: 6.00 Build 0)  -->
<svg version="1.1" id="Layer_1" xmlns="http://www.w3.org/2000/svg" xmlns:xlink="http://www.w3.org/1999/xlink" x="0px" y="0px"
	 viewBox="0 0 47 35.4" style="enable-background:new 0 0 47 35.4;" xml:space="preserve">
<style type="text/css">
	.st0{clip-path:url(#SVGID_2_);}
	.st1{fill:#022A41;}
	.st2{clip-path:url(#SVGID_9_);}
	.st3{clip-path:url(#SVGID_10_);}
	.st4{clip-path:url(#SVGID_11_);}
	.st5{clip-path:url(#SVGID_12_);}
	.st6{clip-path:url(#SVGID_13_);fill:#022A41;}
	.st7{clip-path:url(#SVGID_15_);}
	.st8{fill:#BE1E2D;}
	.st9{fill:#FFFFFF;}
</style>
<g>
	<g>
		<g>
			<defs>
				<path id="SVGID_1_" d="M7.7,31.8h31c2.9,0,5.3-2.4,5.3-5.3V7.8c0-2.9-2.4-5.3-5.3-5.3h-31c-2.9,0-5.3,2.4-5.3,5.3v18.7
					C2.4,29.4,4.8,31.8,7.7,31.8z"/>
			</defs>
			<clipPath id="SVGID_2_">
				<use xlink:href="#SVGID_1_"  style="overflow:visible;"/>
			</clipPath>
			<g class="st0">
				<g>
					<path id="SVGID_3_" class="st1" d="M7.1,2.5c-2.6,0-4.7,2.1-4.7,4.7v19.9c0,2.6,2.1,4.7,4.7,4.7h32.2c2.6,0,4.7-2.1,4.7-4.7
						V7.2c0-2.6-2.1-4.7-4.7-4.7H7.1z"/>
				</g>
				<g>
					<g>
						<defs>
							<path id="SVGID_4_" d="M7.1,2.5c-2.6,0-4.7,2.1-4.7,4.7v19.9c0,2.6,2.1,4.7,4.7,4.7h32.2c2.6,0,4.7-2.1,4.7-4.7V7.2
								c0-2.6-2.1-4.7-4.7-4.7H7.1z"/>
						</defs>
						<defs>
							<path id="SVGID_5_" d="M7.1,2.5c-2.6,0-4.7,2.1-4.7,4.7v19.9c0,2.6,2.1,4.7,4.7,4.7h32.2c2.6,0,4.7-2.1,4.7-4.7V7.2
								c0-2.6-2.1-4.7-4.7-4.7H7.1z"/>
						</defs>
						<defs>
							<path id="SVGID_6_" d="M7.1,2.5c-2.6,0-4.7,2.1-4.7,4.7v19.9c0,2.6,2.1,4.7,4.7,4.7h32.2c2.6,0,4.7-2.1,4.7-4.7V7.2
								c0-2.6-2.1-4.7-4.7-4.7H7.1z"/>
						</defs>
						<defs>
							<path id="SVGID_7_" d="M7.1,2.5c-2.6,0-4.7,2.1-4.7,4.7v19.9c0,2.6,2.1,4.7,4.7,4.7h32.2c2.6,0,4.7-2.1,4.7-4.7V7.2
								c0-2.6-2.1-4.7-4.7-4.7H7.1z"/>
						</defs>
						<defs>
							<path id="SVGID_8_" d="M7.1,2.5c-2.6,0-4.7,2.1-4.7,4.7v19.9c0,2.6,2.1,4.7,4.7,4.7h32.2c2.6,0,4.7-2.1,4.7-4.7V7.2
								c0-2.6-2.1-4.7-4.7-4.7H7.1z"/>
						</defs>
						<clipPath id="SVGID_9_">
							<use xlink:href="#SVGID_4_"  style="overflow:visible;"/>
						</clipPath>
						<clipPath id="SVGID_10_" class="st2">
							<use xlink:href="#SVGID_5_"  style="overflow:visible;"/>
						</clipPath>
						<clipPath id="SVGID_11_" class="st3">
							<use xlink:href="#SVGID_6_"  style="overflow:visible;"/>
						</clipPath>
						<clipPath id="SVGID_12_" class="st4">
							<use xlink:href="#SVGID_7_"  style="overflow:visible;"/>
						</clipPath>
						<clipPath id="SVGID_13_" class="st5">
							<use xlink:href="#SVGID_8_"  style="overflow:visible;"/>
						</clipPath>
						<path class="st6" d="M39.3,31.8H7.1c-2.6,0-4.7-2.1-4.7-4.7V7.2c0-2.6,2.1-4.7,4.7-4.7h32.2c2.6,0,4.7,2.1,4.7,4.7v19.9
							C44,29.7,41.9,31.8,39.3,31.8"/>
						<path class="st6" d="M39.3,31.8H7.1c-2.6,0-4.7-2.1-4.7-4.7V7.2c0-2.6,2.1-4.7,4.7-4.7h32.2c2.6,0,4.7,2.1,4.7,4.7v19.9
							C44,29.7,41.9,31.8,39.3,31.8"/>
					</g>
				</g>
				<g>
					<defs>
						<path id="SVGID_14_" d="M7.7,31.8h31c2.9,0,5.3-2.4,5.3-5.3V7.8c0-2.9-2.4-5.3-5.3-5.3h-31c-2.9,0-5.3,2.4-5.3,5.3v18.7
							C2.4,29.4,4.8,31.8,7.7,31.8z"/>
					</defs>
					<clipPath id="SVGID_15_">
						<use xlink:href="#SVGID_14_"  style="overflow:visible;"/>
					</clipPath>
					<g class="st7">
						<path class="st8" d="M18.9,21c-1,0.2-1.8,0.4-2.6,1.2c0.2,0,0.5,0,0.6,0.1c1.1,0.2,2.3,0.5,3.4,0.8c0.5,0.1,1,0.4,1,0.8
							c0,0.6-0.5,0.7-0.8,1c-0.8,0.4-1.6,0.7-2.4,1.1c-0.2,0.1-0.5,0.4-0.7,0.5c0,0.1,0,0.1,0,0.2c0.4,0.1,0.7,0.2,1.2,0.2
							c0.8,0,1.8,0,2.6,0.1c0.2,0,0.6,0.1,0.8,0.2c0,0.1,0,0.1,0,0.2c-0.2,0.1-0.6,0.4-0.8,0.5c-1.1,0.2-2,0.5-3.1,0.6
							c-2.4,0.2-4.8,0.1-7.2-0.5c-0.4-0.1-0.6-0.2-1-0.4c-0.4-0.1-0.4-0.5-0.1-0.7c0.4-0.2,0.8-0.6,1.3-0.7c1.7-0.5,3.4-1,5-1.4
							c0.6-0.1,1.2-0.2,1.8-0.4c0.2-0.1,0.5-0.1,0.7-0.4c-0.1-0.1-0.4-0.1-0.5-0.2c-0.7-0.2-1.4-0.4-2.2-0.7
							c-0.4-0.1-0.8-0.4-1.2-0.7c-0.4-0.4-0.4-0.7,0.1-1c0.1-0.1,0.2-0.1,0.4-0.1c1.1-0.1,2.3-0.4,3.4-0.5c0.1,0,0.2,0,0.2,0
							C18.9,20.9,18.9,20.9,18.9,21"/>
						<path class="st8" d="M7.1,20.9C7.5,21,8,21,8.3,21.3c0.4,0.1,0.4,0.5,0,0.7c-0.8,0.4-1.7,0.4-2.5,0c-0.4-0.2-0.4-0.6,0-0.7
							C6.3,21,6.8,21,7.1,20.9"/>
						<path class="st9" d="M14.4,22c0.2,0.4,0.6,0.5,1,0.7c0.6,0.4,0.8,0.8,1,1.6c0,0.4,0.1,0.7,0.1,1.1c0,0.5-0.1,1-0.4,1.3
							c-0.1,0.2-0.2,0.4-0.2,0.6c0,0.2,0,0.5-0.4,0.6c0,0-0.1,0-0.1,0.1c-0.5,0.2-0.8,0.1-1.3,0c-0.1,0-0.1-0.1-0.2-0.2
							c-0.1-0.2-0.1-0.5-0.1-0.8c0-0.1,0.1-0.2,0.2-0.2c0.1-0.1,0.4-0.2,0.6-0.4c-0.1-0.2-0.1-0.5-0.2-0.6c-0.1-0.4-0.2-0.6-0.4-1
							c-0.1-0.1-0.2-0.4-0.4-0.4c-0.4-0.2-0.7-0.4-1.1-0.6c-0.1,0-0.1-0.1-0.2-0.1c-0.5-0.1-1-0.4-1.4-0.6c-0.6-0.2-1.2-1.2-1-1.9
							c0.1-0.2,0.1-0.5-0.1-0.7c-0.1-0.1-0.5,0-0.7,0.2c-0.1,0.1-0.1,0.1-0.1,0.2c-0.1,0.2-0.4,0.4-0.6,0.5c-0.1,0-0.2,0.1-0.2,0
							c-0.4-0.2-0.6,0-1,0c-0.7,0.1-1.4-0.4-1.6-1.1c-0.1-0.4-0.1-0.8,0.1-1.2c0.1-0.2,0.2-0.4,0.5-0.5C7,18.1,7.9,18,8.8,18
							c0.1,0,0.2,0.1,0.4,0.1c0.2,0,0.6,0.1,0.8,0.1c0.1,0,0.4-0.1,0.4-0.1c0.4-0.4,0.8-0.6,1.3-0.7c0.6-0.2,1.2-0.6,1.7-1.1
							c0.7-0.7,1.9-0.8,2.6-0.1l0.1,0.1c0.2,0.2,0.2,0.2,0.6,0.1c0.2-0.1,0.5-0.1,0.7-0.2c0.2,0,0.4,0,0.6,0.1
							c0.2,0.1,0.5,0.2,0.7,0.5c0.6-0.2,1.3-0.5,2-0.6c0.2-0.1,0.5-0.2,0.8-0.4c0.2-0.1,0.4-0.1,0.6,0c0.1,0,0.2,0,0.4,0
							c0.5-0.2,1-0.4,1.6-0.4c0.1,0,0.2,0,0.4-0.1c0.2-0.1,0.6-0.1,0.8,0c0.4,0.1,0.7,0,1.1-0.1c0.5-0.1,1-0.2,1.4-0.2
							c0.7-0.1,1.4,0,2.2,0.4c0.4,0.2,0.8,0.5,1.1,0.8c0.4,0.4,0.7,0.6,1.2,0.8c0.6,0.2,1.1,0.6,1.7,0.7c0.1,0,0.1,0.1,0.2,0.1
							c0.4,0.2,0.4,0.2,0.4,0.6c0.1,0.2,0.4,0.4,0.6,0.5c1.1,0.5,2.2,0.4,3.2,0c0.2-0.1,0.4-0.1,0.6-0.2c0.4-0.1,0.7-0.1,1.1,0.2
							c0.2,0.2,0.4,0.5,0.2,0.7c-0.4,1-1,1.4-1.9,1.7c-0.2,0-0.5,0.1-0.6,0.1c-0.1,0-0.1,0-0.2,0.1v0.1c0.5-0.1,1-0.1,1.4-0.2
							c0.5-0.1,0.8-0.2,1.3-0.4c0.2-0.1,0.4-0.2,0.6-0.4c0.6-0.4,1-0.5,1.6,0c0,0.2,0,0.6,0,1c0,0.2-0.1,0.6-0.1,0.8
							c-0.1,0.5-0.4,0.8-0.8,1c-0.1,0-0.4,0.1-0.5,0.1c-0.2,0-0.4,0.1-0.5,0.4c-0.1,0.2-0.5,0.2-0.7,0.1c-0.6-0.2-1.1-0.4-1.7-0.6
							c-0.5-0.2-1-0.1-1.6-0.1c0,0.1,0,0.2-0.1,0.4c-0.1,0.4-0.4,0.6-0.8,0.5c-0.2,0-0.5,0-0.6,0c-0.1,0-0.2,0-0.4,0
							c-0.7,0-1.4-0.1-2.2-0.2c-0.6,0-1.2-0.2-1.7-0.5c-0.6-0.2-1.2-0.4-1.8-0.5c-1.7-0.4-3.2-0.6-4.9-1c-0.5-0.1-0.8-0.1-1.3,0
							c-0.1,0-0.2,0-0.4,0c-0.6,0-1.2-0.1-1.9,0c-0.6,0-1.1,0-1.7-0.2c-0.8-0.1-1.4-0.2-1.9-0.2c-0.7,0.1-1.4,0.1-2.3,0.2
							C14.6,21.9,14.6,22,14.4,22 M26.2,19c0.5,0.2,1,0.4,1.4,0.5c0.2,0,0.5,0.1,0.7,0.1c0.4,0.1,0.8,0.4,1.2,0.5
							c0.5,0.2,1,0.4,1.4,0.6c1.1,0.4,2.3,0.4,3.5,0.4c0.1,0,0.2,0,0.5,0c-0.2-0.4-0.5-0.5-0.8-0.6c-0.1,0-0.1,0-0.2,0.1
							c-0.1,0.1-0.1,0.2-0.2,0.2c-0.1,0.1-0.4,0.2-0.5,0.1c-0.4-0.4-1-0.4-1.3-0.6c-0.5-0.2-1-0.6-1.3-0.8c-0.2-0.1-0.4-0.2-0.5-0.4
							c-0.4-0.4-0.7-0.7-1.1-1.1c-0.2-0.2-0.2-0.2-0.5-0.1c-0.1,0-0.1,0.1-0.2,0.1c-0.4,0.4-0.7,0.5-1.2,0.7
							C26.6,18.7,26.4,18.9,26.2,19"/>
						<path class="st8" d="M7.6,28.1c0,0.5-0.4,0.8-0.8,0.8s-0.8-0.4-0.8-0.8s0.4-0.8,0.8-0.8S7.6,27.6,7.6,28.1"/>
					</g>
				</g>
			</g>
		</g>
	</g>
</g>
</svg>
